<svg width="74" height="67" viewBox="0 0 74 67" fill="none" xmlns="http://www.w3.org/2000/svg">
<path d="M39.25 46.75L39.25 35.1C40.6167 35.4 41.9 35.8833 43.1 36.55C44.3 37.1833 45.3667 38 46.3 39C47.2333 40 47.9667 41.2 48.5 42.6C49 43.9667 49.25 45.5167 49.25 47.25C49.25 49.7167 48.6667 51.95 47.5 53.95C46.3333 55.95 44.7167 57.55 42.65 58.75C40.5833 59.9167 38.2 60.5 35.5 60.5C32.7667 60.5 30.3833 59.9167 28.35 58.75C26.2833 57.55 24.6667 55.95 23.5 53.95C22.3333 51.95 21.75 49.7167 21.75 47.25C21.75 44.5833 22.2833 42.2667 23.35 40.3C24.3833 38.3333 25.8333 36.8 27.7 35.7L24.95 32.7C23.3167 33.7 21.95 34.9333 20.85 36.4C19.75 37.8333 18.9167 39.4667 18.35 41.3C17.7833 43.1 17.5 45.0833 17.5 47.25C17.5 49.7833 17.95 52.1333 18.85 54.3C19.7167 56.4667 20.9667 58.35 22.6 59.95C24.2 61.55 26.1 62.8 28.3 63.7C30.5 64.5667 32.9 65 35.5 65C38.1 65 40.5 64.5667 42.7 63.7C44.9 62.8 46.8167 61.55 48.45 59.95C50.05 58.35 51.3 56.4667 52.2 54.3C53.0667 52.1333 53.5 49.7833 53.5 47.25C53.5 44.5833 53.0167 42.2167 52.05 40.15C51.05 38.05 49.7 36.2833 48 34.85C46.3 33.4167 44.3667 32.3333 42.2 31.6C40 30.8667 37.6833 30.5 35.25 30.5L35.25 46.75L39.25 46.75ZM41.5 26.4805C43.8 26.4805 45.8667 25.9638 47.7 24.9305C49.5 23.8638 50.9167 22.4305 51.95 20.6305C52.9833 18.8305 53.5 16.8138 53.5 14.5805C53.5 12.3138 52.9833 10.2971 51.95 8.53047C50.9167 6.73047 49.5 5.3138 47.7 4.28047C45.8667 3.2138 43.8 2.68047 41.5 2.68047C39.1667 2.68047 37.1 3.2138 35.3 4.28047C33.5 5.3138 32.0833 6.73047 31.05 8.53047C30.0167 10.2971 29.5 12.3138 29.5 14.5805C29.5 16.8138 30.0167 18.8305 31.05 20.6305C32.0833 22.4305 33.5 23.8638 35.3 24.9305C37.1 25.9638 39.1667 26.4805 41.5 26.4805ZM41.5 22.4305C39.9 22.4305 38.4833 22.0971 37.25 21.4305C35.9833 20.7305 35 19.7971 34.3 18.6305C33.6 17.4305 33.25 16.0805 33.25 14.5805C33.25 13.0805 33.6 11.7471 34.3 10.5805C35 9.38047 35.9833 8.44713 37.25 7.78047C38.4833 7.08047 39.9 6.73047 41.5 6.73047C43.1 6.73047 44.5167 7.08047 45.75 7.78047C46.9833 8.44713 47.9667 9.38047 48.7 10.5805C49.4 11.7471 49.75 13.0805 49.75 14.5805C49.75 16.0805 49.4 17.4305 48.7 18.6305C47.9667 19.7971 46.9833 20.7305 45.75 21.4305C44.5167 22.0971 43.1 22.4305 41.5 22.4305Z" fill="#19DBE4"/>
<path d="M72 66.51V0" stroke="white" stroke-width="2.5"/>
</svg>
