<svg data-v-70b83f88="" version="1.0" xmlns="http://www.w3.org/2000/svg" xmlns:xlink="http://www.w3.org/1999/xlink" width="100%" height="100%" viewBox="0 0 340.000000 250.000000" preserveAspectRatio="xMidYMid meet" color-interpolation-filters="sRGB" style="margin: auto;">   <g data-v-70b83f88="" fill="#333333" class="icon-text-wrapper icon-svg-group iconsvg" transform="translate(90,95)"><g class="iconsvg-imagesvg" transform="matrix(1,0,0,1,100,0)" mask="url(#cb55d587-3011-4fe3-bd4e-5d862f25980e)" opacity="1"><g><rect fill="#333333" fill-opacity="0" stroke-width="2" x="0" y="0" width="60" height="60" class="image-rect"></rect> <svg filter="url(#colors6923692055)" x="0" y="0" width="60" height="60" filtersec="colorsf3371182043" class="image-svg-svg primary" style="overflow: visible;"><svg xmlns="http://www.w3.org/2000/svg" xmlns:xlink="http://www.w3.org/1999/xlink" version="1.1" x="0px" y="0px" viewBox="5 5 90 90" enable-background="new 0 0 100 100" xml:space="preserve"><g><path d="M5,5v53.996h90V5H5z M92.165,56.161H7.835V7.834h84.33V56.161z"></path><path d="M22.312,73.753c0-2.857-2.316-5.172-5.173-5.172s-5.172,2.315-5.172,5.172c0,0.646,0.114,1.263,0.327,1.833h9.682   C22.195,75.016,22.312,74.399,22.312,73.753z"></path><path d="M92.643,82.491c0-2.274-1.858-4.132-4.137-4.132H77.859c-2.273,0-4.136,1.858-4.136,4.132v4.362h-0.852h-1.698h-0.655   v-4.362c0-2.274-1.862-4.132-4.141-4.132H55.74c-2.282,0-4.141,1.858-4.141,4.132v4.362h-0.901H49.05h-0.7v-4.362   c0-2.274-1.867-4.132-4.142-4.132H33.563c-2.279,0-4.137,1.858-4.137,4.132v4.362h-0.604h-1.946h-0.411v-4.362   c0-2.274-1.858-4.132-4.132-4.132h-10.65c-2.278,0-4.137,1.858-4.137,4.132v4.362H5v2.366h2.546V95h18.919v-5.781h0.411h1.946   h0.604V95H48.35v-5.781h0.7h1.648H51.6V95h18.919v-5.781h0.655h1.698h0.852V95h18.919v-5.781H95v-2.366h-2.357V82.491z"></path><path d="M88.485,73.753c0-2.857-2.315-5.172-5.172-5.172c-2.861,0-5.177,2.315-5.177,5.172c0,0.646,0.123,1.263,0.332,1.833h9.685   C88.372,75.016,88.485,74.399,88.485,73.753z"></path><path d="M44.191,73.753c0-2.857-2.318-5.172-5.176-5.172c-2.861,0-5.172,2.315-5.172,5.172c0,0.646,0.118,1.263,0.336,1.833h9.677   C44.074,75.016,44.191,74.399,44.191,73.753z"></path><path d="M66.361,73.753c0-2.857-2.315-5.172-5.172-5.172c-2.86,0-5.172,2.315-5.172,5.172c0,0.646,0.118,1.263,0.331,1.833h9.681   C66.248,75.016,66.361,74.399,66.361,73.753z"></path></g></svg></svg> <defs><filter id="colors6923692055"><feColorMatrix type="matrix" values="0 0 0 0 0.99609375  0 0 0 0 0.99609375  0 0 0 0 0.99609375  0 0 0 1 0" class="icon-fecolormatrix"></feColorMatrix></filter> <filter id="colorsf3371182043"><feColorMatrix type="matrix" values="0 0 0 0 0.99609375  0 0 0 0 0.99609375  0 0 0 0 0.99609375  0 0 0 1 0" class="icon-fecolormatrix"></feColorMatrix></filter> <filter id="colorsb4165136282"><feColorMatrix type="matrix" values="0 0 0 0 0  0 0 0 0 0  0 0 0 0 0  0 0 0 1 0" class="icon-fecolormatrix"></feColorMatrix></filter></defs></g><rect v-gra="id" width="72" height="72" transform="translate(-6, -6)" style="pointer-events:none;" fill="url(#aaxRyLCi0sVOvxxwVrnQj)"></rect></g> <g transform="translate(0,7.215000152587891)"><g data-gra="path-name" fill-rule="" class="tp-name iconsvg-namesvg" fill="url(#3cc672a4-e23a-4808-8578-297f7c819171)" opacity="1" transform="matrix(1,0,0,1,0,0)"><g transform="scale(1)"><g><path d="M4.68-20.17L13.05-10.2 21.43-20.17 24.54-20.17 24.54 0 22.27 0 22.27-17.59 13.05-6.64 3.84-17.59 3.84 0 1.57 0 1.57-20.17 4.68-20.17ZM30.82-16.25L30.82-16.25 40.56-16.25Q41.99-16.25 42.99-15.25 43.98-14.26 43.98-12.86L43.98-12.86 43.98-3.39Q43.98-1.99 42.99-0.99 41.99 0 40.56 0L40.56 0 30.82 0Q29.41 0 28.42-0.99 27.43-1.99 27.43-3.39L27.43-3.39 27.43-12.86Q27.43-14.26 28.42-15.25 29.41-16.25 30.82-16.25ZM40.56-13.95L40.56-13.95 30.82-13.95Q30.37-13.95 30.05-13.63 29.72-13.31 29.72-12.86L29.72-12.86 29.72-3.39Q29.72-2.94 30.05-2.62 30.37-2.3 30.82-2.3L30.82-2.3 40.56-2.3Q41.01-2.3 41.33-2.62 41.66-2.94 41.66-3.39L41.66-3.39 41.66-12.86Q41.66-13.31 41.33-13.63 41.01-13.95 40.56-13.95ZM55.92-2.24L63.54-16.25 66.23-16.25 57.23 0 54.57 0 45.61-16.25 48.3-16.25 55.92-2.24ZM70.9 0L68.61 0 68.61-16.25 70.9-16.25 70.9 0ZM68.61-19.27L68.61-21.57 70.9-21.57 70.9-19.27 68.61-19.27ZM77.8-16.25L87.54-16.25Q88.97-16.25 89.97-15.25 90.96-14.26 90.96-12.86L90.96-12.86 90.96-6.98 76.7-6.98 76.7-3.39Q76.7-2.94 77.02-2.62 77.35-2.3 77.8-2.3L77.8-2.3 90.96-2.3 90.96 0 77.8 0Q76.39 0 75.4-0.99 74.41-1.99 74.41-3.39L74.41-3.39 74.41-12.86Q74.41-14.26 75.4-15.25 76.39-16.25 77.8-16.25L77.8-16.25ZM76.7-12.86L76.7-9.27 88.64-9.27 88.64-12.86Q88.64-13.31 88.31-13.63 87.99-13.95 87.54-13.95L87.54-13.95 77.8-13.95Q77.35-13.95 77.02-13.63 76.7-13.31 76.7-12.86L76.7-12.86ZM129.34-16.81L129.34-16.81 129.34-16 127.07-16 127.07-16.81Q127.07-17.26 126.75-17.58 126.43-17.9 125.98-17.9L125.98-17.9 112.53-17.9Q112.08-17.9 111.76-17.58 111.44-17.26 111.44-16.81L111.44-16.81 111.44-3.36Q111.44-2.91 111.76-2.59 112.08-2.27 112.53-2.27L112.53-2.27 125.98-2.27Q126.43-2.27 126.75-2.59 127.07-2.91 127.07-3.36L127.07-3.36 127.07-8.35 122.09-8.35 122.09-10.65 129.34-10.65 129.34-3.36Q129.34-1.96 128.36-0.98 127.38 0 125.98 0L125.98 0 112.53 0Q111.13 0 110.15-0.98 109.17-1.96 109.17-3.36L109.17-3.36 109.17-16.81Q109.17-18.21 110.15-19.19 111.13-20.17 112.53-20.17L112.53-20.17 125.98-20.17Q127.38-20.17 128.36-19.19 129.34-18.21 129.34-16.81ZM135.73-20.17L135.73-20.17 149.18-20.17Q150.58-20.17 151.56-19.19 152.54-18.21 152.54-16.81L152.54-16.81 152.54-3.36Q152.54-1.96 151.56-0.98 150.58 0 149.18 0L149.18 0 135.73 0Q134.33 0 133.35-0.98 132.37-1.96 132.37-3.36L132.37-3.36 132.37-16.81Q132.37-18.21 133.35-19.19 134.33-20.17 135.73-20.17ZM135.73-2.27L135.73-2.27 149.18-2.27Q149.62-2.27 149.95-2.59 150.27-2.91 150.27-3.36L150.27-3.36 150.27-16.81Q150.27-17.26 149.95-17.58 149.62-17.9 149.18-17.9L149.18-17.9 135.73-17.9Q135.28-17.9 134.96-17.58 134.64-17.26 134.64-16.81L134.64-16.81 134.64-3.36Q134.64-2.91 134.96-2.59 135.28-2.27 135.73-2.27Z" transform="translate(-1.5699999332427979, 21.56999969482422)"></path></g> <!----> <!----> <!----> <!----> <!----> <!----> <!----></g></g> <!----></g></g><defs v-gra="od"><linearGradient x1="0" y1="1" x2="0" y2="0" id="3cc672a4-e23a-4808-8578-297f7c819171"><stop offset="0%" stop-color="#f5576c"></stop><stop offset="100%" stop-color="#f093fb"></stop></linearGradient><filter id="42443b3f1de60f6b6fd3b6a9844b4764" filterUnits="userSpaceOnUse"><feColorMatrix type="matrix" values="0 0 0 0 0.99609375  0 0 0 0 0.99609375  0 0 0 0 0.99609375  0 0 0 1 0"></feColorMatrix></filter></defs><defs v-gra="id"><filter id="548bdcd2-431f-4c3b-a54f-1ee79bd89f4f" filterUnits="userSpaceOnUse"><feColorMatrix type="matrix" values="0 0 0 0 0.99609375  0 0 0 0 0.99609375  0 0 0 0 0.99609375  0 0 0 1 0"></feColorMatrix></filter><linearGradient x1="0" y1="1" x2="0" y2="0" id="aaxRyLCi0sVOvxxwVrnQj"><stop offset="0%" stop-color="#f5576c"></stop><stop offset="100%" stop-color="#f093fb"></stop></linearGradient><filter id="42443b3f1de60f6b6fd3b6a9844b4764" filterUnits="userSpaceOnUse"><feColorMatrix type="matrix" values="0 0 0 0 0.99609375  0 0 0 0 0.99609375  0 0 0 0 0.99609375  0 0 0 1 0"></feColorMatrix></filter></defs><mask v-gra="im" id="cb55d587-3011-4fe3-bd4e-5d862f25980e"><g class="iconsvg-imagesvg" filter="url(#548bdcd2-431f-4c3b-a54f-1ee79bd89f4f)"><g><rect fill="#333333" fill-opacity="0" stroke-width="2" x="0" y="0" width="60" height="60" class="image-rect"></rect> <svg x="0" y="0" width="60" height="60" filtersec="colorsf3371182043" class="image-svg-svg primary" style="overflow: visible;"><svg xmlns="http://www.w3.org/2000/svg" xmlns:xlink="http://www.w3.org/1999/xlink" version="1.1" x="0px" y="0px" viewBox="5 5 90 90" enable-background="new 0 0 100 100" xml:space="preserve"><g><path d="M5,5v53.996h90V5H5z M92.165,56.161H7.835V7.834h84.33V56.161z"></path><path d="M22.312,73.753c0-2.857-2.316-5.172-5.173-5.172s-5.172,2.315-5.172,5.172c0,0.646,0.114,1.263,0.327,1.833h9.682   C22.195,75.016,22.312,74.399,22.312,73.753z"></path><path d="M92.643,82.491c0-2.274-1.858-4.132-4.137-4.132H77.859c-2.273,0-4.136,1.858-4.136,4.132v4.362h-0.852h-1.698h-0.655   v-4.362c0-2.274-1.862-4.132-4.141-4.132H55.74c-2.282,0-4.141,1.858-4.141,4.132v4.362h-0.901H49.05h-0.7v-4.362   c0-2.274-1.867-4.132-4.142-4.132H33.563c-2.279,0-4.137,1.858-4.137,4.132v4.362h-0.604h-1.946h-0.411v-4.362   c0-2.274-1.858-4.132-4.132-4.132h-10.65c-2.278,0-4.137,1.858-4.137,4.132v4.362H5v2.366h2.546V95h18.919v-5.781h0.411h1.946   h0.604V95H48.35v-5.781h0.7h1.648H51.6V95h18.919v-5.781h0.655h1.698h0.852V95h18.919v-5.781H95v-2.366h-2.357V82.491z"></path><path d="M88.485,73.753c0-2.857-2.315-5.172-5.172-5.172c-2.861,0-5.177,2.315-5.177,5.172c0,0.646,0.123,1.263,0.332,1.833h9.685   C88.372,75.016,88.485,74.399,88.485,73.753z"></path><path d="M44.191,73.753c0-2.857-2.318-5.172-5.176-5.172c-2.861,0-5.172,2.315-5.172,5.172c0,0.646,0.118,1.263,0.336,1.833h9.677   C44.074,75.016,44.191,74.399,44.191,73.753z"></path><path d="M66.361,73.753c0-2.857-2.315-5.172-5.172-5.172c-2.86,0-5.172,2.315-5.172,5.172c0,0.646,0.118,1.263,0.331,1.833h9.681   C66.248,75.016,66.361,74.399,66.361,73.753z"></path></g></svg></svg> <defs><filter id="colors6923692055"><feColorMatrix type="matrix" values="0 0 0 0 0.99609375  0 0 0 0 0.99609375  0 0 0 0 0.99609375  0 0 0 1 0" class="icon-fecolormatrix"></feColorMatrix></filter> <filter id="colorsf3371182043"><feColorMatrix type="matrix" values="0 0 0 0 0.99609375  0 0 0 0 0.99609375  0 0 0 0 0.99609375  0 0 0 1 0" class="icon-fecolormatrix"></feColorMatrix></filter> <filter id="colorsb4165136282"><feColorMatrix type="matrix" values="0 0 0 0 0  0 0 0 0 0  0 0 0 0 0  0 0 0 1 0" class="icon-fecolormatrix"></feColorMatrix></filter></defs></g></g></mask></svg>