<svg data-v-70b83f88="" version="1.0" xmlns="http://www.w3.org/2000/svg" xmlns:xlink="http://www.w3.org/1999/xlink" width="100%" height="100%" viewBox="0 0 340.000000 250.000000" preserveAspectRatio="xMidYMid meet" color-interpolation-filters="sRGB" style="margin: auto;">   <g data-v-70b83f88="" fill="#FEF0DA" class="j-b-g-c iconbgsvg" transform="translate(82.5,37.5)"><g data-d="container" transform="translate(0,0)"><g><rect fill="#FEF0DA" fill-opacity="0" stroke-width="2" x="0" y="0" width="175" height="175" class="image-rect"></rect> <svg filter="url(#colors7697319772)" x="0" y="0" width="175" height="175" filtersec="colorsf1673202732" class="image-svg-container primary" style="overflow: visible;"><svg xmlns="http://www.w3.org/2000/svg" viewBox="0 0 249 249" fill-rule="evenodd" clip-rule="evenodd" shape-rendering="geometricPrecision" text-rendering="geometricPrecision" image-rendering="optimizeQuality" style="overflow: visible;"><g transform="scale(1, 1) skewX(0)"><path class="fil0" d="M125 0c68 0 124 56 124 125 0 68-56 124-124 124C56 249 0 193 0 125 0 56 56 0 125 0z" fill="#000000"></path></g></svg></svg> <defs><filter id="colors7697319772"><feColorMatrix type="matrix" values="0 0 0 0 0.10546875  0 0 0 0 0.14453125  0 0 0 0 0.19140625  0 0 0 1 0" class="icon-fecolormatrix"></feColorMatrix></filter> <filter id="colorsf1673202732"><feColorMatrix type="matrix" values="0 0 0 0 0.99609375  0 0 0 0 0.99609375  0 0 0 0 0.99609375  0 0 0 1 0" class="icon-fecolormatrix"></feColorMatrix></filter> <filter id="colorsb7998002932"><feColorMatrix type="matrix" values="0 0 0 0 0  0 0 0 0 0  0 0 0 0 0  0 0 0 1 0" class="icon-fecolormatrix"></feColorMatrix></filter></defs></g></g> <g data-d="icon-text" hollow-target="textRect" transform="translate(21.485000610351562,43.21500015258789)"><g data-d="icon" class="iconsvg-imagesvg" transform="matrix(1,0,0,1,36.01499938964844,0)" opacity="1"><g><!----> <svg filter="url(#colors2734324501)" x="0" y="0" width="60" height="60" filtersec="colorsf9486661532" class="image-svg-svg primary" style="overflow: visible;"><svg xmlns="http://www.w3.org/2000/svg" xmlns:xlink="http://www.w3.org/1999/xlink" version="1.1" x="0px" y="0px" viewBox="5 5 90 90" enable-background="new 0 0 100 100" xml:space="preserve"><g><path d="M5,5v53.996h90V5H5z M92.165,56.161H7.835V7.834h84.33V56.161z"></path><path d="M22.312,73.753c0-2.857-2.316-5.172-5.173-5.172s-5.172,2.315-5.172,5.172c0,0.646,0.114,1.263,0.327,1.833h9.682   C22.195,75.016,22.312,74.399,22.312,73.753z"></path><path d="M92.643,82.491c0-2.274-1.858-4.132-4.137-4.132H77.859c-2.273,0-4.136,1.858-4.136,4.132v4.362h-0.852h-1.698h-0.655   v-4.362c0-2.274-1.862-4.132-4.141-4.132H55.74c-2.282,0-4.141,1.858-4.141,4.132v4.362h-0.901H49.05h-0.7v-4.362   c0-2.274-1.867-4.132-4.142-4.132H33.563c-2.279,0-4.137,1.858-4.137,4.132v4.362h-0.604h-1.946h-0.411v-4.362   c0-2.274-1.858-4.132-4.132-4.132h-10.65c-2.278,0-4.137,1.858-4.137,4.132v4.362H5v2.366h2.546V95h18.919v-5.781h0.411h1.946   h0.604V95H48.35v-5.781h0.7h1.648H51.6V95h18.919v-5.781h0.655h1.698h0.852V95h18.919v-5.781H95v-2.366h-2.357V82.491z"></path><path d="M88.485,73.753c0-2.857-2.315-5.172-5.172-5.172c-2.861,0-5.177,2.315-5.177,5.172c0,0.646,0.123,1.263,0.332,1.833h9.685   C88.372,75.016,88.485,74.399,88.485,73.753z"></path><path d="M44.191,73.753c0-2.857-2.318-5.172-5.176-5.172c-2.861,0-5.172,2.315-5.172,5.172c0,0.646,0.118,1.263,0.336,1.833h9.677   C44.074,75.016,44.191,74.399,44.191,73.753z"></path><path d="M66.361,73.753c0-2.857-2.315-5.172-5.172-5.172c-2.86,0-5.172,2.315-5.172,5.172c0,0.646,0.118,1.263,0.331,1.833h9.681   C66.248,75.016,66.361,74.399,66.361,73.753z"></path></g></svg></svg> <defs><filter id="colors2734324501"><feColorMatrix type="matrix" values="0 0 0 0 0.9921875  0 0 0 0 0.9375  0 0 0 0 0.8515625  0 0 0 1 0" class="icon-fecolormatrix"></feColorMatrix></filter> <filter id="colorsf9486661532"><feColorMatrix type="matrix" values="0 0 0 0 0.99609375  0 0 0 0 0.99609375  0 0 0 0 0.99609375  0 0 0 1 0" class="icon-fecolormatrix"></feColorMatrix></filter> <filter id="colorsb4341503195"><feColorMatrix type="matrix" values="0 0 0 0 0  0 0 0 0 0  0 0 0 0 0  0 0 0 1 0" class="icon-fecolormatrix"></feColorMatrix></filter></defs></g></g> <g data-d="text" transform="translate(0,67)"><g data-gra="path-name" fill-rule="" class="tp-name iconsvg-namesvg" opacity="1" transform="matrix(1,0,0,1,0,0)"><g transform="scale(1)"><g><path d="M4.68-20.17L13.05-10.2 21.43-20.17 24.54-20.17 24.54 0 22.27 0 22.27-17.59 13.05-6.64 3.84-17.59 3.84 0 1.57 0 1.57-20.17 4.68-20.17ZM30.82-16.25L30.82-16.25 40.56-16.25Q41.99-16.25 42.99-15.25 43.98-14.26 43.98-12.86L43.98-12.86 43.98-3.39Q43.98-1.99 42.99-0.99 41.99 0 40.56 0L40.56 0 30.82 0Q29.41 0 28.42-0.99 27.43-1.99 27.43-3.39L27.43-3.39 27.43-12.86Q27.43-14.26 28.42-15.25 29.41-16.25 30.82-16.25ZM40.56-13.95L40.56-13.95 30.82-13.95Q30.37-13.95 30.05-13.63 29.72-13.31 29.72-12.86L29.72-12.86 29.72-3.39Q29.72-2.94 30.05-2.62 30.37-2.3 30.82-2.3L30.82-2.3 40.56-2.3Q41.01-2.3 41.33-2.62 41.66-2.94 41.66-3.39L41.66-3.39 41.66-12.86Q41.66-13.31 41.33-13.63 41.01-13.95 40.56-13.95ZM55.92-2.24L63.54-16.25 66.23-16.25 57.23 0 54.57 0 45.61-16.25 48.3-16.25 55.92-2.24ZM70.9 0L68.61 0 68.61-16.25 70.9-16.25 70.9 0ZM68.61-19.27L68.61-21.57 70.9-21.57 70.9-19.27 68.61-19.27ZM77.8-16.25L87.54-16.25Q88.97-16.25 89.97-15.25 90.96-14.26 90.96-12.86L90.96-12.86 90.96-6.98 76.7-6.98 76.7-3.39Q76.7-2.94 77.02-2.62 77.35-2.3 77.8-2.3L77.8-2.3 90.96-2.3 90.96 0 77.8 0Q76.39 0 75.4-0.99 74.41-1.99 74.41-3.39L74.41-3.39 74.41-12.86Q74.41-14.26 75.4-15.25 76.39-16.25 77.8-16.25L77.8-16.25ZM76.7-12.86L76.7-9.27 88.64-9.27 88.64-12.86Q88.64-13.31 88.31-13.63 87.99-13.95 87.54-13.95L87.54-13.95 77.8-13.95Q77.35-13.95 77.02-13.63 76.7-13.31 76.7-12.86L76.7-12.86ZM114.1-16.81L114.1-16.81 114.1-16 111.83-16 111.83-16.81Q111.83-17.26 111.51-17.58 111.19-17.9 110.74-17.9L110.74-17.9 97.29-17.9Q96.84-17.9 96.52-17.58 96.2-17.26 96.2-16.81L96.2-16.81 96.2-3.36Q96.2-2.91 96.52-2.59 96.84-2.27 97.29-2.27L97.29-2.27 110.74-2.27Q111.19-2.27 111.51-2.59 111.83-2.91 111.83-3.36L111.83-3.36 111.83-8.35 106.85-8.35 106.85-10.65 114.1-10.65 114.1-3.36Q114.1-1.96 113.12-0.98 112.14 0 110.74 0L110.74 0 97.29 0Q95.89 0 94.91-0.98 93.93-1.96 93.93-3.36L93.93-3.36 93.93-16.81Q93.93-18.21 94.91-19.19 95.89-20.17 97.29-20.17L97.29-20.17 110.74-20.17Q112.14-20.17 113.12-19.19 114.1-18.21 114.1-16.81ZM120.43-16.25L120.43-16.25 130.18-16.25Q131.61-16.25 132.6-15.25 133.6-14.26 133.6-12.86L133.6-12.86 133.6-3.39Q133.6-1.99 132.6-0.99 131.61 0 130.18 0L130.18 0 120.43 0Q119.03 0 118.04-0.99 117.04-1.99 117.04-3.39L117.04-3.39 117.04-12.86Q117.04-14.26 118.04-15.25 119.03-16.25 120.43-16.25ZM130.18-13.95L130.18-13.95 120.43-13.95Q119.98-13.95 119.66-13.63 119.34-13.31 119.34-12.86L119.34-12.86 119.34-3.39Q119.34-2.94 119.66-2.62 119.98-2.3 120.43-2.3L120.43-2.3 130.18-2.3Q130.63-2.3 130.95-2.62 131.27-2.94 131.27-3.39L131.27-3.39 131.27-12.86Q131.27-13.31 130.95-13.63 130.63-13.95 130.18-13.95Z" transform="translate(-1.5699999332427979, 21.56999969482422)"></path></g> <!----> <!----> <!----> <!----> <!----> <!----> <!----></g></g> <!----></g></g></g><defs><filter id="17a5a52c-400c-49d6-87ab-3a9914bc9e93">
          <feColorMatrix type="matrix" values="0 0 0 0 0  0 0 0 0 0  0 0 0 0 0  0 0 0 1 0"></feColorMatrix>
          </filter><filter id="675899dc-4254-4655-87a3-e42a9263339d">
          <feColorMatrix type="matrix" values="0 0 0 0 0.99609375  0 0 0 0 0.99609375  0 0 0 0 0.99609375  0 0 0 1 0"></feColorMatrix>
          </filter></defs><mask id="07b9ca91-26f1-4623-bfe7-8590244a6e25"><g data-v-70b83f88="" fill="#FEF0DA" class="j-b-g-c iconbgsvg"><g data-d="container" transform="translate(0,0)"><g><rect fill="#FEF0DA" fill-opacity="0" stroke-width="2" x="0" y="0" width="175" height="175" class="image-rect" stroke="#000"></rect> <svg filter="url(#675899dc-4254-4655-87a3-e42a9263339d)" x="0" y="0" width="175" height="175" filtersec="colorsf1673202732" class="image-svg-container primary" style="overflow: visible;"><svg xmlns="http://www.w3.org/2000/svg" viewBox="0 0 249 249" fill-rule="evenodd" clip-rule="evenodd" shape-rendering="geometricPrecision" text-rendering="geometricPrecision" image-rendering="optimizeQuality" style="overflow: visible;"><g transform="scale(1, 1) skewX(0)"><path class="fil0" d="M125 0c68 0 124 56 124 125 0 68-56 124-124 124C56 249 0 193 0 125 0 56 56 0 125 0z" fill="#000000"></path></g></svg></svg> <defs><filter id="colors7697319772"><feColorMatrix type="matrix" values="0 0 0 0 0.10546875  0 0 0 0 0.14453125  0 0 0 0 0.19140625  0 0 0 1 0" class="icon-fecolormatrix"></feColorMatrix></filter> <filter id="colorsf1673202732"><feColorMatrix type="matrix" values="0 0 0 0 0.99609375  0 0 0 0 0.99609375  0 0 0 0 0.99609375  0 0 0 1 0" class="icon-fecolormatrix"></feColorMatrix></filter> <filter id="colorsb7998002932"><feColorMatrix type="matrix" values="0 0 0 0 0  0 0 0 0 0  0 0 0 0 0  0 0 0 1 0" class="icon-fecolormatrix"></feColorMatrix></filter></defs></g></g> <g data-d="icon-text" hollow-target="textRect" transform="translate(21.485000610351562,43.21500015258789)"><g data-d="icon" class="iconsvg-imagesvg" transform="matrix(1,0,0,1,36.01499938964844,0)" opacity="1"><g><!----> <svg filter="url(#colors2734324501)" x="0" y="0" width="60" height="60" filtersec="colorsf9486661532" class="image-svg-svg primary" style="overflow: visible;"><svg xmlns="http://www.w3.org/2000/svg" xmlns:xlink="http://www.w3.org/1999/xlink" version="1.1" x="0px" y="0px" viewBox="5 5 90 90" enable-background="new 0 0 100 100" xml:space="preserve" style="overflow: visible;"><g><path d="M5,5v53.996h90V5H5z M92.165,56.161H7.835V7.834h84.33V56.161z"></path><path d="M22.312,73.753c0-2.857-2.316-5.172-5.173-5.172s-5.172,2.315-5.172,5.172c0,0.646,0.114,1.263,0.327,1.833h9.682   C22.195,75.016,22.312,74.399,22.312,73.753z"></path><path d="M92.643,82.491c0-2.274-1.858-4.132-4.137-4.132H77.859c-2.273,0-4.136,1.858-4.136,4.132v4.362h-0.852h-1.698h-0.655   v-4.362c0-2.274-1.862-4.132-4.141-4.132H55.74c-2.282,0-4.141,1.858-4.141,4.132v4.362h-0.901H49.05h-0.7v-4.362   c0-2.274-1.867-4.132-4.142-4.132H33.563c-2.279,0-4.137,1.858-4.137,4.132v4.362h-0.604h-1.946h-0.411v-4.362   c0-2.274-1.858-4.132-4.132-4.132h-10.65c-2.278,0-4.137,1.858-4.137,4.132v4.362H5v2.366h2.546V95h18.919v-5.781h0.411h1.946   h0.604V95H48.35v-5.781h0.7h1.648H51.6V95h18.919v-5.781h0.655h1.698h0.852V95h18.919v-5.781H95v-2.366h-2.357V82.491z"></path><path d="M88.485,73.753c0-2.857-2.315-5.172-5.172-5.172c-2.861,0-5.177,2.315-5.177,5.172c0,0.646,0.123,1.263,0.332,1.833h9.685   C88.372,75.016,88.485,74.399,88.485,73.753z"></path><path d="M44.191,73.753c0-2.857-2.318-5.172-5.176-5.172c-2.861,0-5.172,2.315-5.172,5.172c0,0.646,0.118,1.263,0.336,1.833h9.677   C44.074,75.016,44.191,74.399,44.191,73.753z"></path><path d="M66.361,73.753c0-2.857-2.315-5.172-5.172-5.172c-2.86,0-5.172,2.315-5.172,5.172c0,0.646,0.118,1.263,0.331,1.833h9.681   C66.248,75.016,66.361,74.399,66.361,73.753z"></path></g></svg></svg> <defs><filter id="colors2734324501"><feColorMatrix type="matrix" values="0 0 0 0 0.9921875  0 0 0 0 0.9375  0 0 0 0 0.8515625  0 0 0 1 0" class="icon-fecolormatrix"></feColorMatrix></filter> <filter id="colorsf9486661532"><feColorMatrix type="matrix" values="0 0 0 0 0.99609375  0 0 0 0 0.99609375  0 0 0 0 0.99609375  0 0 0 1 0" class="icon-fecolormatrix"></feColorMatrix></filter> <filter id="colorsb4341503195"><feColorMatrix type="matrix" values="0 0 0 0 0  0 0 0 0 0  0 0 0 0 0  0 0 0 1 0" class="icon-fecolormatrix"></feColorMatrix></filter></defs></g></g> <g data-d="text" transform="translate(0,67)"><g data-gra="path-name" fill-rule="" class="tp-name iconsvg-namesvg" opacity="1" transform="matrix(1,0,0,1,0,0)"><g transform="scale(1)"><g><path d="M4.68-20.17L13.05-10.2 21.43-20.17 24.54-20.17 24.54 0 22.27 0 22.27-17.59 13.05-6.64 3.84-17.59 3.84 0 1.57 0 1.57-20.17 4.68-20.17ZM30.82-16.25L30.82-16.25 40.56-16.25Q41.99-16.25 42.99-15.25 43.98-14.26 43.98-12.86L43.98-12.86 43.98-3.39Q43.98-1.99 42.99-0.99 41.99 0 40.56 0L40.56 0 30.82 0Q29.41 0 28.42-0.99 27.43-1.99 27.43-3.39L27.43-3.39 27.43-12.86Q27.43-14.26 28.42-15.25 29.41-16.25 30.82-16.25ZM40.56-13.95L40.56-13.95 30.82-13.95Q30.37-13.95 30.05-13.63 29.72-13.31 29.72-12.86L29.72-12.86 29.72-3.39Q29.72-2.94 30.05-2.62 30.37-2.3 30.82-2.3L30.82-2.3 40.56-2.3Q41.01-2.3 41.33-2.62 41.66-2.94 41.66-3.39L41.66-3.39 41.66-12.86Q41.66-13.31 41.33-13.63 41.01-13.95 40.56-13.95ZM55.92-2.24L63.54-16.25 66.23-16.25 57.23 0 54.57 0 45.61-16.25 48.3-16.25 55.92-2.24ZM70.9 0L68.61 0 68.61-16.25 70.9-16.25 70.9 0ZM68.61-19.27L68.61-21.57 70.9-21.57 70.9-19.27 68.61-19.27ZM77.8-16.25L87.54-16.25Q88.97-16.25 89.97-15.25 90.96-14.26 90.96-12.86L90.96-12.86 90.96-6.98 76.7-6.98 76.7-3.39Q76.7-2.94 77.02-2.62 77.35-2.3 77.8-2.3L77.8-2.3 90.96-2.3 90.96 0 77.8 0Q76.39 0 75.4-0.99 74.41-1.99 74.41-3.39L74.41-3.39 74.41-12.86Q74.41-14.26 75.4-15.25 76.39-16.25 77.8-16.25L77.8-16.25ZM76.7-12.86L76.7-9.27 88.64-9.27 88.64-12.86Q88.64-13.31 88.31-13.63 87.99-13.95 87.54-13.95L87.54-13.95 77.8-13.95Q77.35-13.95 77.02-13.63 76.7-13.31 76.7-12.86L76.7-12.86ZM114.1-16.81L114.1-16.81 114.1-16 111.83-16 111.83-16.81Q111.83-17.26 111.51-17.58 111.19-17.9 110.74-17.9L110.74-17.9 97.29-17.9Q96.84-17.9 96.52-17.58 96.2-17.26 96.2-16.81L96.2-16.81 96.2-3.36Q96.2-2.91 96.52-2.59 96.84-2.27 97.29-2.27L97.29-2.27 110.74-2.27Q111.19-2.27 111.51-2.59 111.83-2.91 111.83-3.36L111.83-3.36 111.83-8.35 106.85-8.35 106.85-10.65 114.1-10.65 114.1-3.36Q114.1-1.96 113.12-0.98 112.14 0 110.74 0L110.74 0 97.29 0Q95.89 0 94.91-0.98 93.93-1.96 93.93-3.36L93.93-3.36 93.93-16.81Q93.93-18.21 94.91-19.19 95.89-20.17 97.29-20.17L97.29-20.17 110.74-20.17Q112.14-20.17 113.12-19.19 114.1-18.21 114.1-16.81ZM120.43-16.25L120.43-16.25 130.18-16.25Q131.61-16.25 132.6-15.25 133.6-14.26 133.6-12.86L133.6-12.86 133.6-3.39Q133.6-1.99 132.6-0.99 131.61 0 130.18 0L130.18 0 120.43 0Q119.03 0 118.04-0.99 117.04-1.99 117.04-3.39L117.04-3.39 117.04-12.86Q117.04-14.26 118.04-15.25 119.03-16.25 120.43-16.25ZM130.18-13.95L130.18-13.95 120.43-13.95Q119.98-13.95 119.66-13.63 119.34-13.31 119.34-12.86L119.34-12.86 119.34-3.39Q119.34-2.94 119.66-2.62 119.98-2.3 120.43-2.3L120.43-2.3 130.18-2.3Q130.63-2.3 130.95-2.62 131.27-2.94 131.27-3.39L131.27-3.39 131.27-12.86Q131.27-13.31 130.95-13.63 130.63-13.95 130.18-13.95Z" transform="translate(-1.5699999332427979, 21.56999969482422)"></path></g> <!----> <!----> <!----> <!----> <!----> <!----> <!----></g></g> <!----></g></g></g></mask><defs v-gra="od"></defs></svg>